<?xml version="1.0" encoding="UTF-8"?>
<svg id="_레이어_2" data-name="레이어 2" xmlns="http://www.w3.org/2000/svg" viewBox="0 0 307.89 219.94">
  <defs>
    <style>
      .cls-1 {
        fill: none;
        stroke: #f9dd8b;
        stroke-miterlimit: 10;
        stroke-width: 2.5px;
      }
    </style>
  </defs>
  <g id="comment">
    <g>
      <path class="cls-1" d="M10.76,34.42c-2.27-3.12-5.63-7.84-7.71-14.61C1.59,15.07.28,10.81,2.24,6.52c.42-.92,1.68-3.68,4.54-4.8,4.02-1.58,8.18,1.27,9.09,1.89,3.53,2.42,4.83,5.86,6.9,11.6,1.08,2.98,2.4,7.33,3.17,12.83-1.98,1.16-4.73,3.08-7.29,6.14-1.66,1.98-2.81,3.92-3.6,5.52-1.12-1.23-2.64-3.02-4.29-5.28Z"/>
      <path class="cls-1" d="M18.08,44.56c.62-1.71,2.08-4.98,5.34-7.78,1.98-1.7,3.97-2.67,5.4-3.22,1.75,1.46,3.94,3.8,5.29,7.2.94,2.37,2.51,6.34.47,9.59-1,1.59-2.9,3.05-5.08,3.2-2.6.17-4.57-1.64-7.23-4.1-2.03-1.87-3.38-3.69-4.19-4.9Z"/>
      <path class="cls-1" d="M4.31,23.32C6.65,14.32,9.27,3.59,8.4,3.31c-.38-.12-1.34,1.8-1.85,3.09-2.83,7.21-.03,16.12,1.7,16.09,2.36-.04,3.6-16.67,4.07-16.61.56.08-2.68,23.79-1.46,24.01,1.2.22,6.27-22.32,6.58-22.25.33.08-5.58,25.43-4.22,25.81.97.27,5.21-12.18,5.95-11.94.64.21-2.27,9.4-1.22,9.83.89.36,4.17-5.66,6.59-10.35"/>
      <path class="cls-1" d="M19.34,45.87c.63-.09,6.05-.93,6.53-3.52.12-.63-.06-1.39-.26-1.41-.67-.06-2.13,7.89-1.66,8.02.63.18,4.62-13.33,5.36-13.12.8.22-2.98,16.06-2.19,16.27.67.17,3.93-10.85,4.9-10.61.8.2-.7,7.66.21,7.89.54.14,1.7-2.36,2.96-5.59"/>
      <path class="cls-1" d="M278.22,187.28c1.58-2.41,3.8-6.11,5.9-10.9,2.97-6.79,3.21-10.07,6.59-12.43,2.7-1.89,6.86-2.81,10.21-1.19,5.06,2.44,5.55,9.35,5.68,11.21.72,10.12-7.7,17.05-8.62,17.78-3.58,2.86-7.27,4.01-9.51,4.52-1.56-.84-3.44-2.02-5.38-3.68-2.17-1.86-3.75-3.75-4.87-5.29Z"/>
      <path class="cls-1" d="M272.85,196.69c1.6,1.34,3.46,2.75,5.6,4.14,2.44,1.59,4.76,2.85,6.86,3.84-.8,1.72-2.04,4.2-3.78,7.06-2.82,4.62-4.01,5.41-4.62,5.75-2.05,1.16-5.65,1.98-8.51,0-2.83-1.95-3.69-5.79-2.9-8.48.81-2.76,3-3.02,5.26-6.86,1.23-2.09,1.8-4.07,2.09-5.47Z"/>
      <path class="cls-1" d="M284.7,175.01c7.55-6.39,12.57-10.22,13.14-9.63,1.05,1.07-12.45,16.86-13.45,16.13-.31-.22.32-2.17,1.66-3.69,3.98-4.51,10.69-1.28,14.54-5.7,1.27-1.45,2.04-3.52,1.56-3.95-1.69-1.48-20.43,16.18-19.25,17.7,1,1.3,16.28-9.09,17.02-8.01.62.9-9.89,8.62-8.91,10.19.79,1.27,8.32-2.5,8.78-1.66.31.57-2.79,3.12-12.04,9.1"/>
      <path class="cls-1" d="M271.26,201.23c3.32-.78,5.79-1.17,5.97-.68.35.96-7.9,4.81-7.76,5.09.14.29,9.16-4.43,9.77-3.48.79,1.23-12.6,11.79-13.18,11.15-.24-.26,1.46-2.47,3.55-4.09,5.36-4.17,12.89-4.18,13.22-3.04.46,1.57-12.48,5.96-12.01,7.43.28.86,7.33-1.43,7.74-.42.3.73-2.96,2.8-7.27,5.18"/>
    </g>
  </g>
</svg>