<?xml version="1.0" encoding="UTF-8"?>
<svg id="_레이어_2" data-name="레이어 2" xmlns="http://www.w3.org/2000/svg" viewBox="0 0 36.82 54.82">
  <defs>
    <style>
      .cls-1 {
        fill: none;
        stroke: #f9dd8b;
        stroke-linecap: round;
        stroke-linejoin: round;
        stroke-width: 2.5px;
      }
    </style>
  </defs>
  <g id="comment">
    <g>
      <path class="cls-1" d="M10.76,34.42c-2.27-3.12-5.63-7.84-7.71-14.61C1.59,15.07.28,10.81,2.24,6.52c.42-.92,1.68-3.68,4.54-4.8,4.02-1.58,8.18,1.27,9.09,1.89,3.53,2.42,4.83,5.86,6.9,11.6,1.08,2.98,2.4,7.33,3.17,12.83-1.98,1.16-4.73,3.08-7.29,6.14-1.66,1.98-2.81,3.92-3.6,5.52-1.12-1.23-2.64-3.02-4.29-5.28Z"/>
      <path class="cls-1" d="M18.08,44.56c.62-1.71,2.08-4.98,5.34-7.78,1.98-1.7,3.97-2.67,5.4-3.22,1.75,1.46,3.94,3.8,5.29,7.2.94,2.37,2.51,6.34.47,9.59-1,1.59-2.9,3.05-5.08,3.2-2.6.17-4.57-1.64-7.23-4.1-2.03-1.87-3.38-3.69-4.19-4.9Z"/>
      <path class="cls-1" d="M4.31,23.32C6.65,14.32,9.27,3.59,8.4,3.31c-.38-.12-1.34,1.8-1.85,3.09-2.83,7.21-.03,16.12,1.7,16.09,2.36-.04,3.6-16.67,4.07-16.61.56.08-2.68,23.79-1.46,24.01,1.2.22,6.27-22.32,6.58-22.25.33.08-5.58,25.43-4.22,25.81.97.27,5.21-12.18,5.95-11.94.64.21-2.27,9.4-1.22,9.83.89.36,4.17-5.66,6.59-10.35"/>
      <path class="cls-1" d="M19.34,45.87c.63-.09,6.05-.93,6.53-3.52.12-.63-.06-1.39-.26-1.41-.67-.06-2.13,7.89-1.66,8.02.63.18,4.62-13.33,5.36-13.12.8.22-2.98,16.06-2.19,16.27.67.17,3.93-10.85,4.9-10.61.8.2-.7,7.66.21,7.89.54.14,1.7-2.36,2.96-5.59"/>
    </g>
  </g>
</svg>