<?xml version="1.0" encoding="UTF-8"?>
<svg id="_레이어_2" data-name="레이어 2" xmlns="http://www.w3.org/2000/svg" viewBox="0 0 286.38 9.54">
  <defs>
    <style>
      .cls-1 {
        fill: none;
        stroke: #eaafad;
        stroke-miterlimit: 10;
        stroke-width: 2px;
      }
    </style>
  </defs>
  <g id="comment">
    <g>
      <path class="cls-1" d="M259.56,4.7c.84-1.91,2.26-3.35,3.71-3.33,1.63.02,3.06,1.87,4.19,3.33.52.68.43.69.86,1.19.7.81,2.18,2.54,4.19,2.53,2.02-.01,3.48-1.79,4.1-2.53.55-.66.42-.74,1.05-1.57.86-1.14,2.16-2.85,3.71-2.95,1.54-.1,3.18,1.38,4.1,3.52"/>
      <path class="cls-1" d="M233.73,4.71c.84,1.91,2.26,3.35,3.71,3.33,1.63-.02,3.06-1.87,4.19-3.33.52-.68.43-.69.86-1.19.7-.81,2.18-2.54,4.19-2.53,2.02.01,3.48,1.79,4.1,2.53.55.66.42.74,1.05,1.57.86,1.14,2.16,2.85,3.71,2.95,1.54.1,3.18-1.38,4.1-3.52"/>
      <path class="cls-1" d="M207.84,4.67c.84-1.95,2.28-3.42,3.74-3.4,1.63.02,3.06,1.87,4.19,3.33.52.68.43.69.86,1.19.7.81,2.18,2.54,4.19,2.53,2.02-.01,3.48-1.79,4.1-2.53.55-.66.42-.74,1.05-1.57.86-1.14,2.16-2.85,3.71-2.95,1.54-.1,3.18,1.38,4.1,3.52"/>
      <path class="cls-1" d="M181.96,4.8c.84,1.91,2.26,3.35,3.71,3.33,1.63-.02,3.06-1.87,4.19-3.33.52-.68.43-.69.86-1.19.7-.81,2.18-2.54,4.19-2.53,2.02.01,3.48,1.79,4.1,2.53.55.66.42.74,1.05,1.57.86,1.14,2.16,2.85,3.71,2.95,1.54.1,3.18-1.38,4.1-3.52"/>
      <path class="cls-1" d="M156.13,4.78c.84-1.91,2.26-3.35,3.71-3.33,1.63.02,3.06,1.87,4.19,3.33.52.68.43.69.86,1.19.7.81,2.18,2.54,4.19,2.53,2.02-.01,3.48-1.79,4.1-2.53.55-.66.42-.74,1.05-1.57.86-1.14,2.16-2.85,3.71-2.95,1.54-.1,3.18,1.38,4.1,3.52"/>
      <path class="cls-1" d="M130.22,4.87c.84,1.95,2.28,3.42,3.74,3.4,1.63-.02,3.06-1.87,4.19-3.33.52-.68.43-.69.86-1.19.7-.81,2.18-2.54,4.19-2.53,2.02.01,3.48,1.79,4.1,2.53.55.66.42.74,1.05,1.57.86,1.14,2.16,2.85,3.71,2.95,1.54.1,3.18-1.38,4.1-3.52"/>
      <path class="cls-1" d="M104.34,4.74c.84-1.91,2.26-3.35,3.71-3.33,1.63.02,3.06,1.87,4.19,3.33.52.68.43.69.86,1.19.7.81,2.18,2.54,4.19,2.53,2.02-.01,3.48-1.79,4.1-2.53.55-.66.42-.74,1.05-1.57.86-1.14,2.16-2.85,3.71-2.95,1.54-.1,3.18,1.38,4.1,3.52"/>
      <path class="cls-1" d="M78.51,4.76c.84,1.91,2.26,3.35,3.71,3.33,1.63-.02,3.06-1.87,4.19-3.33.52-.68.43-.69.86-1.19.7-.81,2.18-2.54,4.19-2.53,2.02.01,3.48,1.79,4.1,2.53.55.66.42.74,1.05,1.57.86,1.14,2.16,2.85,3.71,2.95,1.54.1,3.18-1.38,4.1-3.52"/>
      <path class="cls-1" d="M52.62,4.71c.84-1.95,2.28-3.42,3.74-3.4,1.63.02,3.06,1.87,4.19,3.33.52.68.43.69.86,1.19.7.81,2.18,2.54,4.19,2.53,2.02-.01,3.48-1.79,4.1-2.53.55-.66.42-.74,1.05-1.57.86-1.14,2.16-2.85,3.71-2.95,1.54-.1,3.18,1.38,4.1,3.52"/>
      <path class="cls-1" d="M26.74,4.84c.84,1.91,2.26,3.35,3.71,3.33,1.63-.02,3.06-1.87,4.19-3.33.52-.68.43-.69.86-1.19.7-.81,2.18-2.54,4.19-2.53,2.02.01,3.48,1.79,4.1,2.53.55.66.42.74,1.05,1.57.86,1.14,2.16,2.85,3.71,2.95,1.54.1,3.18-1.38,4.1-3.52"/>
      <path class="cls-1" d="M.92,4.82c.84-1.91,2.26-3.35,3.71-3.33,1.63.02,3.06,1.87,4.19,3.33.52.68.43.69.86,1.19.7.81,2.18,2.54,4.19,2.53,2.02-.01,3.48-1.79,4.1-2.53.55-.66.42-.74,1.05-1.57.86-1.14,2.16-2.85,3.71-2.95,1.54-.1,3.18,1.38,4.1,3.52"/>
    </g>
  </g>
</svg>