<?xml version="1.0" encoding="UTF-8"?>
<svg id="_레이어_2" data-name="레이어 2" xmlns="http://www.w3.org/2000/svg" viewBox="0 0 392.94 150.24">
  <defs>
    <style>
      .cls-1 {
        fill: #bbd3a5;
      }

      .cls-2 {
        fill: none;
        stroke: #92a382;
        stroke-miterlimit: 10;
        stroke-width: 1.3px;
      }
    </style>
  </defs>
  <g id="music">
    <g>
      <circle class="cls-1" cx="351.34" cy="74.52" r="7.38"/>
      <ellipse class="cls-1" cx="149.06" cy="53.81" rx="7.38" ry="5.05" transform="translate(-9.13 44.25) rotate(-16.39)"/>
      <ellipse class="cls-1" cx="325.3" cy="62.94" rx="9.81" ry="6.75"/>
      <ellipse class="cls-1" cx="126.48" cy="42.89" rx="11" ry="6.75"/>
      <path class="cls-2" d="M.49,123.58c6.09,7.06,10.84,8.4,14.15,8.21,1.39-.08,2.01-.4,10.65-3.81,8.51-3.36,9.23-3.57,10.45-3.64,4.93-.3,8.7,2.18,13.26,5.18,8.35,5.49,13.79,12.11,13.79,12.11.61.74,3.13,3.85,7.38,6.31,1.92,1.11,3.6,2.06,4.89,1.46,2.23-1.03,2.01-6.1,1.61-10.28-1.06-11.12-3.65-19.49-4.8-23.37-2.71-9.13-4.44-18.53-6.7-27.79-.89-3.66-2.62-10.75-4.3-20.21-.38-2.17-1.8-10.6.13-20.09.57-2.82,1.47-5.87,4.04-7.2,1.55-.8,3.82-1.05,5.56,0,1.39.84,2.18,2.35,2.65,4.42,2.8,12.18-3.86,23.6-3.86,23.6-3.35,5.74-4.58,4.61-13.07,15.05-5.91,7.27-8.88,10.99-9.47,15.16-.92,6.45,1.81,13.93,7.58,18.44,1.37,1.07,7.13,5.57,14.53,3.92,5.97-1.33,11.27-6.28,12.38-12.76.1-.57,1.66-10.61-5.68-14.65-5.35-2.95-12.31-1-15.54,3.28-4.82,6.39-.34,16.63,5.81,20.21,3.77,2.19,7.72,1.42,15.62-.13,4.82-.94,13.93-3.37,20.64-10.23,2.33-2.38,2.99-3.89,3.16-5.31.44-3.83-2.96-5.21-3.79-9.85-.95-5.33,2.37-9.95,3.03-10.86,2.34-3.25,4.7-3.8,10.23-6.82,5.71-3.12,12-6.56,16.8-12.38,2.42-2.93,6.53-7.91,5.81-14.27-.1-.85-1.01-8.01-6.57-9.98-3.73-1.32-9.32-.23-10.74,3.54-.78,2.08-.43,4.84,1.26,6.57,2.53,2.59,6.57,1.46,7.71,1.14.31-.09,4.5-1.33,6.32-5.31.58-1.27.75-2.45.63-6.95-.12-4.24-.18-6.35-.51-8.84-.54-4.08-1.2-11.12-1.85-24.34-.24-.83-.41-1.86.08-2.27,1.12-.94,4.93,1.93,6.91,3.37,3.7,2.7,9.18,6.43,16.84,10.78.5.54.7.91.59,1.09-.49.85-7.17-1.84-20.04-8.08-.71.11-1.14.34-1.26.67-.65,1.7,6.17,6.25,20.46,13.64.33.2.89.6,1.35,1.26.66.97.73,1.98.76,2.44.78,12.99,0,17.01,0,17.01-1.09,5.6-1.96,9.8-5.47,13.22-2.55,2.48-4.43,2.54-5.05,2.53-2.61-.08-5.46-2.22-5.47-4.55-.02-2.6,3.53-4.4,5.73-4.97,5.32-1.39,10.33,2.39,12.97,4.38,1.87,1.41,8.89,6.71,9.98,15.24.6,4.7-1.13,6.28-2.78,13.52-1.32,5.8-3.34,14.61-1.01,21.73,3.46,10.59,16.58,17.64,28.49,18.06,9.46.34,21.23-3.4,27.22-12.63,3.49-5.38,3.59-11.12,3.79-22.61.19-11.19-1.85-23.7-3.16-31.71-.12-.75-.23-1.36-.29-1.77.31-.39.81-.9,1.52-1.01,1.18-.18,2.24.9,2.61,1.26,3.15,3.09,8.88,5.69,10.44,6.32,2.05.82,5.49,2.21,8.76.93,1.67-.66,3.75-3.2,7.83-8.25,2.05-2.53,3.02-3.88,5.05-4.55.37-.12,2.84-.89,5.14.25,2.53,1.26,3.41,4.12,3.96,5.73,2.13,6.25,6.38,11.58,9.43,17.43,1.85,3.55,3.78,7.17,7.5,10.78,2.42,2.35,3.66,2.8,4.63,2.95,3.17.47,5.89-1.95,9.94-5.64,4.9-4.47,5.02-6.13,9.1-8.67,2.19-1.37,4.26-2.66,7.16-2.78,3.31-.13,4.15,1.41,7.66,1.26,1.32-.05,5.47-.22,7.16-3.12,1.7-2.91.39-7.71-2.86-9.35-3.66-1.84-7.74,1.35-8.25,1.77-3.66,2.95-4.26,7.79-4.55,11.03-1.12,12.61.26,26.14,1.35,34.19,0,.24.05.62.25,1.01.9,1.74,3.94,1.81,4.63,1.85,2.42.14,7.79,1.65,20.46,7.41.01-.42,0-.97-.08-1.6-.15-1.07-.44-1.83-.51-2.02-.38-1.06-4.85-14.57-5.14-26.02-.15-6.01-.34-13.53,4.55-17.18.44-.33,4.24-3.07,8.42-1.6,2.42.85,5.01,3.13,5.31,6.32.35,3.72-2.5,7.91-5.98,7.92-3.24,0-6.03-3.55-5.98-6.48.1-5.07,8.66-7.73,9.85-8.08,2.52-.75,3.56-.52,13.39.08,10.61.65,12.29.55,17.6,1.26,3.42.46,6.24.97,8.17,1.35"/>
    </g>
  </g>
</svg>