<?xml version="1.0" encoding="UTF-8"?>
<svg id="_레이어_2" data-name="레이어 2" xmlns="http://www.w3.org/2000/svg" viewBox="0 0 179.74 117.22">
  <defs>
    <style>
      .cls-1 {
        fill: none;
        stroke: #f9dd8b;
        stroke-miterlimit: 10;
      }
    </style>
  </defs>
  <g id="main_loading">
    <g id="main_loading_foot">
      <path class="cls-1" d="M63.26,60.06c.39-1.27.89-3.19,1.2-5.59.44-3.39.12-4.87,1.31-6.35.95-1.18,2.67-2.13,4.37-1.85,2.55.43,3.66,3.42,3.96,4.23,1.62,4.39-1.21,8.54-1.52,8.98-1.22,1.73-2.7,2.71-3.63,3.23-.8-.17-1.78-.45-2.86-.94-1.2-.54-2.15-1.17-2.84-1.71Z"/>
      <path class="cls-1" d="M62.09,64.92c.88.39,1.89.77,3.01,1.11,1.28.39,2.48.65,3.53.82-.13.87-.36,2.12-.76,3.61-.65,2.41-1.08,2.91-1.31,3.14-.76.78-2.25,1.61-3.77,1.1-1.5-.5-2.38-2.09-2.38-3.38,0-1.33.94-1.72,1.45-3.71.28-1.08.27-2.04.22-2.69Z"/>
      <path class="cls-1" d="M6.24,107.81c-1.26-1.48-3.15-3.72-4.46-7.04-.92-2.32-1.75-4.42-.94-6.65.17-.48.7-1.92,2.09-2.6,1.96-.96,4.16.31,4.65.59,1.87,1.08,2.66,2.75,3.94,5.56.66,1.45,1.5,3.59,2.11,6.33-.95.66-2.26,1.74-3.42,3.38-.76,1.06-1.26,2.08-1.59,2.92-.61-.58-1.45-1.41-2.37-2.48Z"/>
      <path class="cls-1" d="M10.32,112.63c.24-.89.85-2.59,2.37-4.13.93-.94,1.89-1.5,2.59-1.83.94.66,2.13,1.75,2.95,3.41.57,1.16,1.52,3.09.62,4.8-.44.84-1.34,1.65-2.43,1.81-1.3.19-2.36-.64-3.8-1.77-1.09-.86-1.85-1.72-2.3-2.29Z"/>
      <path class="cls-1" d="M2.86,103.29c-.03-4.69-.15-10.26-.61-10.28-.2,0-.42,1.05-.5,1.75-.44,3.89,2.08,7.86,2.92,7.62,1.14-.33-.42-8.6-.18-8.63.28-.04,1.79,11.94,2.42,11.89.62-.05.15-11.7.31-11.7.17,0,.59,13.12,1.31,13.13.51,0,.95-6.62,1.35-6.59.34.02.12,4.88.69,4.95.48.06,1.29-3.3,1.86-5.9"/>
      <path class="cls-1" d="M11.01,113.23c.31-.07,3.01-.71,3.14-2.03.03-.32-.08-.7-.19-.7-.34,0-.76,4.05-.51,4.1.32.06,1.79-6.89,2.17-6.82.41.08-.86,8.2-.45,8.27.34.06,1.54-5.62,2.04-5.53.41.07-.04,3.88.42,3.96.28.05.76-1.25,1.27-2.93"/>
      <path class="cls-1" d="M64.54,53.79c2.52-3.8,4.25-6.15,4.58-5.96.6.34-3.34,9.07-3.88,8.88-.17-.06-.14-1,.26-1.85,1.18-2.51,4.57-1.95,5.7-4.4.37-.81.45-1.82.18-1.95-.94-.44-6.96,9.8-6.24,10.32.61.45,6.03-6.12,6.5-5.74.39.32-3.27,5.09-2.63,5.66.51.46,3.36-2.18,3.67-1.87.21.21-.83,1.74-4.16,5.58"/>
      <path class="cls-1" d="M61.98,67.13c1.37-.77,2.41-1.27,2.56-1.07.28.38-2.87,3.15-2.78,3.25.1.11,3.48-3.14,3.88-2.8.51.44-4.06,6.84-4.4,6.64-.14-.08.33-1.28,1.04-2.27,1.83-2.54,5.17-3.51,5.46-3.05.41.63-4.76,4.25-4.36,4.84.23.34,3.06-1.58,3.37-1.18.22.28-.95,1.62-2.55,3.23"/>
      <path class="cls-1" d="M108.22,17.56c-1.58-1.31-3.95-3.3-5.92-6.51-1.38-2.25-2.63-4.27-2.19-6.74.09-.53.38-2.12,1.7-3.08,1.86-1.35,4.39-.44,4.94-.23,2.14.78,3.27,2.38,5.11,5.06.95,1.39,2.21,3.46,3.34,6.2-.87.86-2.03,2.22-2.94,4.14-.59,1.24-.93,2.39-1.12,3.32-.74-.49-1.76-1.2-2.91-2.15Z"/>
      <path class="cls-1" d="M113.34,21.82c.09-.97.41-2.85,1.72-4.72.79-1.14,1.69-1.9,2.36-2.38,1.1.52,2.54,1.43,3.69,3.01.8,1.1,2.14,2.94,1.52,4.88-.3.95-1.09,1.96-2.19,2.33-1.32.44-2.57-.24-4.27-1.15-1.29-.7-2.23-1.45-2.81-1.97Z"/>
      <path class="cls-1" d="M103.41,12.69c.01-4.96-.07-10.84-.55-10.86-.21-.01-.45,1.1-.54,1.84-.5,4.1,2.13,8.32,3.02,8.07,1.21-.34-.36-9.08-.11-9.11.3-.04,1.78,12.63,2.44,12.58.65-.05.26-12.35.43-12.35.18,0,.51,13.86,1.26,13.87.53.01,1.06-6.98,1.48-6.95.36.02.08,5.15.68,5.23.51.07,1.4-3.48,2.02-6.22"/>
      <path class="cls-1" d="M114.17,22.32c.31-.13,3-1.28,2.9-2.68-.02-.34-.21-.71-.32-.69-.35.06-.05,4.35.21,4.36.35,0,.61-7.49,1.02-7.48.44,0,.6,8.68,1.03,8.68.37,0,.58-6.12,1.12-6.13.44,0,.66,4.04,1.16,4.04.3,0,.56-1.44.79-3.28"/>
      <path class="cls-1" d="M166.99,14.72c.56-1.2,1.33-3.04,1.97-5.37.91-3.29.8-4.81,2.18-6.11,1.11-1.04,2.94-1.74,4.58-1.22,2.47.78,3.15,3.9,3.33,4.74,1,4.57-2.39,8.29-2.76,8.68-1.45,1.54-3.05,2.31-4.04,2.69-.77-.28-1.7-.7-2.7-1.33-1.11-.7-1.96-1.46-2.57-2.09Z"/>
      <path class="cls-1" d="M165.16,19.37c.82.5,1.76,1.03,2.83,1.52,1.22.56,2.36.98,3.39,1.3-.25.84-.65,2.05-1.26,3.47-.98,2.3-1.47,2.73-1.73,2.93-.86.66-2.45,1.28-3.89.57-1.42-.71-2.07-2.4-1.88-3.68.19-1.31,1.17-1.58,1.95-3.48.42-1.03.55-1.98.59-2.63Z"/>
      <path class="cls-1" d="M169.14,8.69c3.02-3.42,5.06-5.5,5.36-5.26.55.42-4.57,8.52-5.07,8.25-.16-.08,0-1.01.52-1.79,1.52-2.32,4.8-1.29,6.26-3.56.48-.75.7-1.74.45-1.9-.87-.57-8.25,8.73-7.61,9.35.54.53,6.83-5.22,7.24-4.78.34.37-3.94,4.59-3.39,5.24.44.53,3.63-1.69,3.9-1.34.18.24-1.07,1.61-4.89,4.95"/>
      <path class="cls-1" d="M164.74,21.55c1.46-.58,2.56-.92,2.68-.7.22.42-3.28,2.72-3.21,2.83.08.12,3.89-2.63,4.23-2.24.44.51-4.97,6.21-5.28,5.96-.12-.1.5-1.22,1.35-2.1,2.17-2.26,5.61-2.76,5.83-2.26.31.69-5.3,3.55-4.99,4.19.18.37,3.25-1.14,3.51-.7.18.31-1.16,1.47-2.98,2.85"/>
    </g>
  </g>
</svg>