<?xml version="1.0" encoding="UTF-8"?>
<svg id="_레이어_2" data-name="레이어 2" xmlns="http://www.w3.org/2000/svg" viewBox="0 0 275.47 209.37">
  <defs>
    <style>
      .cls-1 {
        fill: #e3e1d7;
      }
    </style>
  </defs>
  <g id="main_loading">
    <g id="main_loading_logo">
      <g id="main_loading_logo_path">
        <path class="cls-1" d="M30,204.34c-2.73,1.6-5.76-1.94-3.15-4.36,1.75-1.53,4.55.14,4.27,2.36-.09,1.35-.95,2.69-2.33,3.02-.68.16-1.36.07-1.96-.08-3.47-.73-7.43-2.83-9.73-4.82-6.22-5.86-11.24-13.13-14.1-21.21-5.25-15.3-4.22-34.39,7.95-46.18,7.2-6.34,20.71-5.72,25.47,3.31,2.34,4.36,1.9,9.61.4,14.15-1.57,4.49-3.78,9.39-8.47,11.35-11.06,4.01-21.45-7.39-12.54-17.02,6.45-6.69,16.35-.65,21.2,5.04,3.14,3.63,4.92,8.36,5.35,13.09.84,10.99-3.28,21.91-9.3,30.93-3.36,5.14-9.98,7.49-12.9,12.98-.16.3-.29.63-.3.84.01.19,0,.18.27.33,2.03.54,4.27-.28,6.1-1.36,3.2-2,6.34-4.32,9.26-6.71.55-.5,1.07-1.04.89-1.45-.4-1.15-2.34-1.6-3.48-1.75-2.84-.26-6,1.15-7.74,3.39-2.94,3.8,7.87,4.7,9.95,5.14,12.18,1.69,24.56,2.11,36.79.65,12.21-1.46,24.18-4.8,35.38-9.84,6.99-3.05,13.77-8.15,12.76-16.59-.28-7.69-.7-15.45-.54-23.14-.4-10.27,8.94-16.51,17.24-20.31,5.5-2.86,11.57-4.83,17.74-5.6,6.17-.81,12.34-1,18.46-1.53,12.26-1.05,24.59-1.93,36.45-4.93,11.68-3.08,23.19-8.42,32.41-16.18,4.25-3.81,7.7-8.7,8.92-14.32.09-3.13-.32-6.38-.63-9.6-.33-3.08-.71-6.09-1.13-9.23.05-1.3.24-2.33.46-3.56.28-1.17.28-3.26,1.78-3.81,2.06-.65,3.59,1.52,3.21,3.37-.43,1.85-2.47,1.41-3.62.72-2.45-1.18-4.26-3.52-5.51-5.78-5.84-8.53-7.62-19.14-7.33-29.28.09-.87.05-1.7.16-2.56,0,0,.04-.43.04-.43.02-.13.03-.34.04-.31,1.02-7.94,2.66-19.13,12.08-21.3,7.18-2.01,12.98,4.91,11.34,11.82-2.24,8.75-11.95,12.16-17.76,4.55-9.1-10.97-3.77-26.43,10.76-28.06,5.07-.48,9.99,1.64,13.6,4.93,7.4,6.9,8.07,17.8,6.66,27.19-1.83,13.06-9,25.39-19.81,33.03-1,.67-2.09,1.29-3.24,1.68-2.06.94-4.2,2.15-6.21,3.26-.48.28-.9.64-.91.91.17,1.32,2.3,2.26,3.53,2.39,2.15-.06,4.6-1.22,6.85-1.37,2.12-.5,4.94.42,6.2-1.77,2.82-5.65-6.01-5.2-9.22-3.78,0,0-.2-.56-.2-.56,2.25-.8,4.69-1.31,7.14-.9,1.18.21,2.5.68,3.23,1.88.94,1.79,0,4.14-1.65,5.17-1.7.79-3.61.45-5.38.82-2.5.22-4.44,1.36-7.03,1.46-1.95-.12-5.96-2.27-3.89-4.52,2.25-1.63,4.64-2.75,7.12-4.01,2.16-.78,3.99-2.26,5.78-3.74,12.44-10.59,18.92-27.91,16.22-44.04-1.3-8.97-9.23-17.25-18.6-16.37-9.74,1.07-16.06,9.92-12.78,19.35,1.92,5.97,8.18,12.75,14.32,7.47,3.31-2.76,4.65-7.78,2.39-11.57-3.64-6.49-12.77-3.04-15.22,2.82-4.95,11.48-4.61,27.31.29,39.05.93,1.91,2.13,3.81,3.27,5.71,1.36,2.33,3.07,4.66,5.69,5.39-.01,0-.18.03-.28.14-.1.12-.09.15-.09.13.05-.15-.1-.81-.38-.9-.1-.04-.14-.02-.06-.04.08-.03.07-.07,0,.05-.06.12-.1.28-.15.57-.26,1.29-.75,3.79-.77,4.65.72,6.15,1.66,12.23,1.72,18.52,0,.34-.07,1.02-.14,1.36-3.11,12.29-14.63,19.68-25.27,24.91-16.71,8.63-35.94,9.8-54.27,11.19-12.2.84-24.76.71-35.77,6.72-6.65,3.15-14.03,7.24-16.21,14.74-1.22,7.45-.31,15.37-.27,22.92.04,2.65.45,6.68-.09,9.34-1.51,6.41-7.52,10.15-13.11,12.63-5.67,2.48-11.49,4.6-17.46,6.22-17.92,4.88-36.8,5.49-55.15,2.97-2.95-.52-11.97-1.23-11.08-5.17,1.61-3.99,7.52-6.12,11.42-4.38.81.35,1.64.85,1.93,1.79.19.49-.02,1.16-.29,1.48-.77,1-1.72,1.66-2.66,2.42-3.82,2.66-7.27,6.34-12.07,7.11-.82.07-1.63.15-2.57-.18-.5-.15-1.08-.85-.98-1.42.37-2.09,1.97-3.65,3.27-5.17,3.22-3.45,7.42-5.37,9.98-9.38,7.22-11.04,13.1-28.4,5.12-40.38-2.93-4.14-7.4-7.7-12.34-8.87-5.77-1.66-11.17,4.35-10.39,9.88.75,5.77,8.35,8.59,13.33,6.5,2.61-1.06,4.51-3.48,5.81-6.12,2.5-5.2,4.26-11.6,1.45-16.98-4.25-8.08-16.5-8.52-22.94-2.87C3.21,142.68.21,155.93,1.74,167.72c.76,6.02,2.27,12.03,5.15,17.41,2.74,5.38,6.77,10.77,10.95,14.69,2.64,2.25,5.85,3.79,9.19,4.65,2.35.86,4.18-1.68,2.94-3.6-.62-.79-1.92-1.05-2.68-.36-.79.65-1.03,1.94-.4,2.77.59.85,1.89,1.09,2.79.54l.31.52h0Z"/>
      </g>
    </g>
  </g>
</svg>