<?xml version="1.0" encoding="UTF-8"?>
<svg id="_레이어_2" data-name="레이어 2" xmlns="http://www.w3.org/2000/svg" viewBox="0 0 81.04 57.84">
  <defs>
    <style>
      .cls-1 {
        fill: #705d3e;
        font-family: Pretendard-Regular-KSCpc-EUC-H, Pretendard;
        font-size: 11px;
        letter-spacing: -.03em;
      }

      .cls-2 {
        fill: #b4b897;
      }
    </style>
  </defs>
  <g id="course_detail">
    <g id="comment">
      <g>
        <circle class="cls-2" cx="14.44" cy="30.96" r="2.3"/>
        <path class="cls-2" d="M25.1,25.61c0,2.22-1.8,4.02-4.02,4.02s-4.02-1.8-4.02-4.02,1.8-4.02,4.02-4.02,4.02,1.8,4.02,4.02Z"/>
        <path class="cls-2" d="M31.64,3.59c-3.21,1.7-6.91,3.65-7.76,7.34-1.18,5.12,3.97,10,4.85,10.84,7.29,6.91,18.37,5.59,25.15,4.78,6.04-.72,9.52-1.19,12.27-4.16,4.2-4.54,4.64-12.68,1.06-17.55C63.45-.29,56.44-.13,46.93.08c-8.24.18-13,2.3-15.29,3.51Z"/>
      </g>
      <text class="cls-1" transform="translate(0 54.61)"><tspan x="0" y="0">이 코스에 대한 의견</tspan></text>
    </g>
  </g>
</svg>