<?xml version="1.0" encoding="UTF-8"?>
<svg id="_레이어_2" data-name="레이어 2" xmlns="http://www.w3.org/2000/svg" viewBox="0 0 12.46 18.66">
  <defs>
    <style>
      .cls-1 {
        fill: #839573;
      }
    </style>
  </defs>
  <g id="course_detail">
    <path id="location" class="cls-1" d="M12.06,3.95c-.75-1.91-2.26-2.82-2.73-3.08C8.06.13,6.85.02,6.23,0c-.62.02-1.83.13-3.11.87-.47.27-1.98,1.17-2.73,3.08-.68,1.75-.31,3.29-.19,3.76.16.61.38,1.09.56,1.43,1.82,3.17,3.64,6.35,5.46,9.52,1.82-3.17,3.64-6.35,5.46-9.52.18-.34.41-.82.56-1.43.12-.47.49-2.01-.19-3.76ZM6.23,10.24c-2.2,0-3.98-1.78-3.98-3.98s1.78-3.98,3.98-3.98,3.98,1.78,3.98,3.98-1.78,3.98-3.98,3.98Z"/>
  </g>
</svg>