<?xml version="1.0" encoding="UTF-8"?>
<svg id="_레이어_2" data-name="레이어 2" xmlns="http://www.w3.org/2000/svg" viewBox="0 0 16.06 16.61">
  <defs>
    <style>
      .cls-1 {
        fill: #839573;
      }
    </style>
  </defs>
  <g id="course_detail">
    <path id="nature" class="cls-1" d="M14.72,4.15c.23-1.73.84-3.09,1.33-3.97-3-.42-5.37-.02-6.78.33-1.96.48-5.19,1.27-7.4,4.15C1.25,5.45-.09,7.2,0,9.66c.09,2.33,1.43,3.91,1.87,4.41.01.01.03.03.04.05-.17-.4-.15-1.41,3.69-5.01.84-.79,1.88-1.72,3.11-2.72-.98,1.61-1.61,2.98-2.01,3.98-.36.91-.82,1.77-1.22,2.66-.75,1.67-1.07,2.46-1.64,2.51-.17.01-.35-.05-.53-.15.55.39,1.24.76,2.08.99,2.7.74,5.47-.4,7.14-2.06,1.74-1.73,2.13-3.89,2.25-4.6.37-2.22-.38-3.13-.06-5.57Z"/>
  </g>
</svg>