<?xml version="1.0" encoding="UTF-8"?>
<svg id="_레이어_2" data-name="레이어 2" xmlns="http://www.w3.org/2000/svg" viewBox="0 0 43.93 59.27">
  <defs>
    <style>
      .cls-1 {
        fill: none;
        stroke: #f9dd8b;
        stroke-linecap: round;
        stroke-linejoin: round;
        stroke-width: 2.5px;
      }
    </style>
  </defs>
  <g id="comment">
    <g>
      <path class="cls-1" d="M14.26,26.61c1.58-2.41,3.8-6.11,5.9-10.9,2.97-6.79,3.21-10.07,6.59-12.43,2.7-1.89,6.86-2.81,10.21-1.19,5.06,2.44,5.55,9.35,5.68,11.21.72,10.12-7.7,17.05-8.62,17.78-3.58,2.86-7.27,4.01-9.51,4.52-1.56-.84-3.44-2.02-5.38-3.68-2.17-1.86-3.75-3.75-4.87-5.29Z"/>
      <path class="cls-1" d="M8.89,36.02c1.6,1.34,3.46,2.75,5.6,4.14,2.44,1.59,4.76,2.85,6.86,3.84-.8,1.72-2.04,4.2-3.78,7.06-2.82,4.62-4.01,5.41-4.62,5.75-2.05,1.16-5.65,1.98-8.51,0-2.83-1.95-3.69-5.79-2.9-8.48.81-2.76,3-3.02,5.26-6.86,1.23-2.09,1.8-4.07,2.09-5.47Z"/>
      <path class="cls-1" d="M20.74,14.34c7.55-6.39,12.57-10.22,13.14-9.63,1.05,1.07-12.45,16.86-13.45,16.13-.31-.22.32-2.17,1.66-3.69,3.98-4.51,10.69-1.28,14.54-5.7,1.27-1.45,2.04-3.52,1.56-3.95-1.69-1.48-20.43,16.18-19.25,17.7,1,1.3,16.28-9.09,17.02-8.01.62.9-9.89,8.62-8.91,10.19.79,1.27,8.32-2.5,8.78-1.66.31.57-2.79,3.12-12.04,9.1"/>
      <path class="cls-1" d="M7.3,40.56c3.32-.78,5.79-1.17,5.97-.68.35.96-7.9,4.81-7.76,5.09.14.29,9.16-4.43,9.77-3.48.79,1.23-12.6,11.79-13.18,11.15-.24-.26,1.46-2.47,3.55-4.09,5.36-4.17,12.89-4.18,13.22-3.04.46,1.57-12.48,5.96-12.01,7.43.28.86,7.33-1.43,7.74-.42.3.73-2.96,2.8-7.27,5.18"/>
    </g>
  </g>
</svg>