<?xml version="1.0" encoding="UTF-8"?>
<svg id="_레이어_2" data-name="레이어 2" xmlns="http://www.w3.org/2000/svg" viewBox="0 0 86.36 203.17">
  <defs>
    <style>
      .cls-1 {
        stroke-miterlimit: 10;
        stroke-width: 3px;
      }

      .cls-1, .cls-2 {
        fill: none;
        stroke: #839573;
        stroke-linecap: round;
      }

      .cls-3 {
        fill: #51514f;
        font-family: Pretendard-Medium-KSCpc-EUC-H, Pretendard;
        font-size: 15px;
        font-weight: 500;
      }

      .cls-4 {
        fill: #839573;
      }

      .cls-2 {
        stroke-linejoin: round;
        stroke-width: 2px;
      }
    </style>
  </defs>
  <g id="course_upload" data-name="course upload">
    <g id="course_unigue">
      <text class="cls-3" transform="translate(19.76 14.27)"><tspan x="0" y="0">코스 특징 *</tspan></text>
      <g id="location">
        <path id="location-2" data-name="location" class="cls-4" d="M31.66,37.78c-1.16-2.98-3.52-4.38-4.24-4.8-1.99-1.14-3.88-1.32-4.84-1.35-.96.02-2.85.2-4.84,1.35-.73.42-3.08,1.82-4.24,4.8-1.06,2.73-.48,5.13-.29,5.86.24.95.59,1.7.88,2.23,2.83,4.94,5.66,9.88,8.5,14.82,2.83-4.94,5.66-9.88,8.5-14.82.29-.52.63-1.28.88-2.23.19-.73.77-3.13-.29-5.86ZM22.58,47.57c-3.42,0-6.2-2.77-6.2-6.2s2.77-6.2,6.2-6.2,6.2,2.77,6.2,6.2-2.77,6.2-6.2,6.2Z"/>
      </g>
      <g id="background">
        <g>
          <path class="cls-2" d="M2.37,196.41c3.44-3.41,6.87-6.81,10.31-10.22,3.65,3.41,7.29,6.81,10.94,10.22"/>
          <rect class="cls-4" x="7.04" y="192.29" width="11.24" height="10.23"/>
          <path class="cls-4" d="M25.51,173.7c-.41.55-1.91,2.6-2.96,4.63-1.62,3.13-3.43,6.61-2.36,10.23.85,2.88,3.55,6.03,7.26,6.14,2.88.09,5.63-1.67,6.88-4.19,1.23-2.48.68-5.03.17-7.42-.47-2.17-1.22-3.67-2.27-5.72-.89-1.73-2.25-4.08-4.27-6.65-.65.71-1.51,1.71-2.45,2.97Z"/>
          <path class="cls-4" d="M28.82,198.3c-.34-1.17-.51-2.22-.61-3.03v-1.18h-.13c-.02-.26-.04-.42-.06-.42-.02,0-.04.12-.06.42h-.99c-.01-.3-.03-.41-.06-.42-.02,0-.04.15-.06.42h-.02v.22c-.07.8-.22,2.27-.72,4-.61,2.11-1.5,3.76-2.2,4.87h7.1c-.7-1.11-1.59-2.75-2.2-4.87Z"/>
          <polygon class="cls-4" points="13.01 186.45 6.5 192.51 19.48 192.51 13.01 186.45"/>
        </g>
      </g>
      <g id="slope">
        <path id="slope-2" data-name="slope" class="cls-4" d="M0,152.49c.55-.41,1.26-.91,2.11-1.44.67-.41,2.07-1.28,3.54-1.83,3.51-1.32,4.98.06,8.93-1.83.21-.1.32-.15.46-.23,3.14-1.72,4.07-5.44,5.77-9.33,1.77-4.04,3.7-8.48,5.76-8.37,1.55.08,2.6,2.72,4.65,7.83,1.49,3.72,1.81,5.69,3.81,10.99.68,1.82,1.28,3.28,1.66,4.19H0Z"/>
      </g>
      <g id="distance">
        <path id="distance-2" data-name="distance" class="cls-1" d="M31.35,86.27c-4.23.05-8.45.11-12.68.16-.2.01-.48.05-.79.16-1.24.44-1.81,1.57-1.98,1.91-.16.32-.7,1.4-.4,2.7.47,2,2.52,2.74,2.68,2.8h.86c.26,0,8.84-.03,9.37,0,.14,0,.33.02.55.07.94.2,1.56.74,1.83.98.31.28,1.33,1.19,1.47,2.68.15,1.58-.75,3.24-2.17,3.87-.57.26-1.11.29-1.44.28H7.28"/>
      </g>
    </g>
  </g>
</svg>