<?xml version="1.0" encoding="UTF-8"?>
<svg id="_레이어_2" data-name="레이어 2" xmlns="http://www.w3.org/2000/svg" viewBox="0 0 44.91 46.6">
  <defs>
    <style>
      .cls-1 {
        fill: #fff;
      }

      .cls-2 {
        fill: #b4b897;
      }
    </style>
  </defs>
  <g id="music">
    <g>
      <path class="cls-2" d="M13.1,1.54C5.08,4.97.51,13.57.04,21.4c-.57,9.66,4.95,20.77,15.54,24.18,7.87,2.53,16.47.16,22.16-5.15,6.44-6.02,7.16-13.99,7.17-17.33,0-1.83-.05-6.78-3.13-11.91C37.03,3.29,28.8,1.15,26.24.62c-2.06-.43-7.41-1.53-13.15.92Z"/>
      <path class="cls-1" d="M18.71,15.41c-2.74,1.05-4.08,4.13-4.26,6.54-.2,2.71.98,5.87,3.86,7.61,2.57,1.55,5.95,1.64,8.52,0,3.62-2.3,4.53-7.31,2.68-10.44-1.59-2.68-4.84-3.38-6.34-3.71-1.37-.3-2.85-.62-4.46,0Z"/>
      <path class="cls-1" d="M43.76,28.85c-.51,1.9-1.55,4.85-3.77,7.91-2.07,2.85-4.35,4.67-5.93,5.75,1.23-1.87,2.45-3.74,3.68-5.61-1.64,1-3.28,1.99-4.92,2.99l2.48-4.73c-1.47.93-2.94,1.87-4.41,2.8,1-2.14,1.99-4.29,2.99-6.43-1.49,1.5-2.97,3-4.46,4.51.64-1.73,1.29-3.46,1.93-5.19-.41.61-1.11,1.47-2.21,2.21-.58.39-1.14.65-1.61.83.38-.29.91-.77,1.38-1.47.54-.8.78-1.56.89-2.06-.43.33-.89.71-1.35,1.14-.44.41-.84.81-1.2,1.2.46-1.01.92-2.02,1.38-3.03l-2.57.7c.74-.47,2.11-1.5,3.13-3.32,1.3-2.33,1.22-4.55,1.15-5.42.18,1.1.37,2.21.55,3.31.4-.9.8-1.81,1.2-2.71-.03,1.27-.06,2.54-.09,3.82l1.75-3.06c-.28,1.27-.55,2.53-.83,3.8.43-.34.93-.79,1.43-1.38.63-.75,1.05-1.49,1.33-2.07.06.7.07,1.65-.14,2.76-.21,1.12-.56,2.03-.87,2.67.45-.48.95-1.09,1.43-1.84.6-.95.99-1.85,1.24-2.57.11.62.21,1.6,0,2.76-.23,1.29-.75,2.25-1.1,2.8,1.35-1.43,2.7-2.85,4.05-4.28-.81,2.15-1.62,4.31-2.44,6.46.76-.65,1.6-1.45,2.44-2.41.73-.83,1.34-1.65,1.84-2.39-.17,1.06-.49,2.44-1.15,3.95-.56,1.3-1.22,2.34-1.79,3.13.8-.72,1.69-1.6,2.57-2.67.82-.99,1.49-1.94,2.02-2.8Z"/>
      <path class="cls-1" d="M1.14,17.12c.51-1.9,1.55-4.85,3.77-7.91,2.07-2.85,4.35-4.67,5.93-5.75-1.23,1.87-2.45,3.74-3.68,5.61,1.64-1,3.28-1.99,4.92-2.99-.83,1.58-1.65,3.16-2.48,4.73,1.47-.93,2.94-1.87,4.41-2.8-1,2.14-1.99,4.29-2.99,6.43,1.49-1.5,2.97-3,4.46-4.51-.64,1.73-1.29,3.46-1.93,5.19.41-.61,1.11-1.47,2.21-2.21.58-.39,1.14-.65,1.61-.83-.38.29-.91.77-1.38,1.47-.54.8-.78,1.56-.89,2.06.43-.33.89-.71,1.35-1.14.44-.41.84-.81,1.2-1.2-.46,1.01-.92,2.02-1.38,3.03l2.57-.7c-.74.47-2.11,1.5-3.13,3.32-1.3,2.33-1.22,4.55-1.15,5.42-.18-1.1-.37-2.21-.55-3.31-.4.9-.8,1.81-1.2,2.71.03-1.27.06-2.54.09-3.82l-1.75,3.06c.28-1.27.55-2.53.83-3.8-.43.34-.93.79-1.43,1.38-.63.75-1.05,1.49-1.33,2.07-.06-.7-.07-1.65.14-2.76.21-1.12.56-2.03.87-2.67-.45.48-.95,1.09-1.43,1.84-.6.95-.99,1.85-1.24,2.57-.11-.62-.21-1.6,0-2.76.23-1.29.75-2.25,1.1-2.8-1.35,1.43-2.7,2.85-4.05,4.28.81-2.15,1.62-4.31,2.44-6.46-.76.65-1.6,1.45-2.44,2.41-.73.83-1.34,1.65-1.84,2.39.17-1.06.49-2.44,1.15-3.95.56-1.3,1.22-2.34,1.79-3.13-.8.72-1.69,1.6-2.57,2.67-.82.99-1.49,1.94-2.02,2.8Z"/>
    </g>
  </g>
</svg>