<?xml version="1.0" encoding="UTF-8"?>
<svg id="_레이어_2" data-name="레이어 2" xmlns="http://www.w3.org/2000/svg" viewBox="0 0 192.24 148.99">
  <defs>
    <style>
      .cls-1 {
        letter-spacing: -.03em;
      }

      .cls-2 {
        letter-spacing: -.03em;
      }

      .cls-3 {
        fill: #8e7c62;
      }

      .cls-4 {
        letter-spacing: -.03em;
      }

      .cls-5 {
        fill: #705d3e;
        font-family: Pretendard-Regular-KSCpc-EUC-H, Pretendard;
        font-size: 15px;
      }
    </style>
  </defs>
  <g id="main_search">
    <g>
      <path class="cls-3" d="M107.2,53.65c.89-2.91,2.05-7.33,2.76-12.82,1.01-7.78.28-11.18,3.01-14.58,2.18-2.72,6.13-4.89,10.02-4.24,5.86.98,8.4,7.86,9.09,9.7,3.72,10.07-2.78,19.6-3.49,20.61-2.8,3.96-6.2,6.23-8.32,7.4-1.83-.39-4.09-1.04-6.55-2.15-2.76-1.25-4.92-2.69-6.51-3.93Z"/>
      <path class="cls-3" d="M104.52,59.73c2.02.88,4.33,1.77,6.91,2.55,2.95.89,5.68,1.48,8.11,1.87-.3,1.99-.82,4.87-1.75,8.29-1.5,5.53-2.48,6.68-3,7.21-1.74,1.78-5.16,3.69-8.65,2.53-3.45-1.15-5.46-4.8-5.45-7.76.01-3.04,2.15-3.95,3.32-8.52.63-2.49.63-4.67.51-6.17Z"/>
      <path class="cls-3" d="M60.54,38.12c-1.84-4.07-4.55-10.21-5.33-18.37-.55-5.71-1.04-10.85,2.19-15.25.69-.94,2.77-3.77,6.27-4.38,4.93-.85,8.98,3.35,9.86,4.27,3.43,3.57,4.1,7.77,5.12,14.77.53,3.63,1.01,8.87.59,15.29-2.52.85-6.08,2.39-9.7,5.26-2.35,1.86-4.1,3.79-5.37,5.42-.98-1.66-2.29-4.04-3.63-6.99Z"/>
      <path class="cls-3" d="M66.46,51.33c1.11-1.8,3.52-5.16,7.87-7.57,2.64-1.47,5.12-2.1,6.87-2.39,1.64,2.06,3.58,5.23,4.31,9.4.51,2.91,1.36,7.78-1.71,10.98-1.51,1.57-4,2.78-6.51,2.44-2.99-.41-4.8-2.92-7.24-6.33-1.86-2.6-2.97-4.97-3.6-6.53Z"/>
      <text class="cls-5" transform="translate(61.3 119.58)"><tspan class="cls-2" x="0" y="0">죄송합니다</tspan><tspan class="cls-1" x="62.57" y="0">.</tspan><tspan class="cls-2" x="65.91" y="0"> </tspan><tspan class="cls-2" x="-61.3" y="25">검색하신 내용을 찾을 수 없습니다</tspan><tspan class="cls-4" x="127.16" y="25">.</tspan></text>
    </g>
  </g>
</svg>