<?xml version="1.0" encoding="UTF-8"?>
<svg id="_레이어_2" data-name="레이어 2" xmlns="http://www.w3.org/2000/svg" viewBox="0 0 19.4 29.06">
  <defs>
    <style>
      .cls-1 {
        fill: #fff;
      }

      .cls-2 {
        fill: #839573;
      }
    </style>
  </defs>
  <g id="course_upload" data-name="course upload">
    <g id="course_unigue">
      <g id="location">
        <g>
          <circle class="cls-1" cx="9.7" cy="9.74" r="7.04"/>
          <path id="location-2" data-name="location" class="cls-2" d="M18.78,6.15c-1.16-2.98-3.52-4.38-4.24-4.8C12.55.2,10.66.02,9.7,0c-.96.02-2.85.2-4.84,1.35-.73.42-3.08,1.82-4.24,4.8-1.06,2.73-.48,5.13-.29,5.86.24.95.59,1.7.88,2.23,2.83,4.94,5.66,9.88,8.5,14.82,2.83-4.94,5.66-9.88,8.5-14.82.29-.52.63-1.28.88-2.23.19-.73.77-3.13-.29-5.86ZM9.7,15.94c-3.42,0-6.2-2.77-6.2-6.2s2.77-6.2,6.2-6.2,6.2,2.77,6.2,6.2-2.77,6.2-6.2,6.2Z"/>
        </g>
      </g>
    </g>
  </g>
</svg>