<?xml version="1.0" encoding="UTF-8"?>
<svg id="_레이어_2" data-name="레이어 2" xmlns="http://www.w3.org/2000/svg" viewBox="0 0 309.71 80.57">
  <defs>
    <style>
      .cls-1, .cls-2, .cls-3, .cls-4, .cls-5, .cls-6, .cls-7, .cls-8 {
        stroke-miterlimit: 10;
      }

      .cls-1, .cls-2, .cls-3, .cls-4, .cls-6, .cls-7, .cls-8 {
        stroke: #000;
      }

      .cls-1, .cls-3, .cls-5, .cls-6, .cls-7 {
        stroke-width: .7px;
      }

      .cls-1, .cls-4 {
        fill: #eaafad;
      }

      .cls-2, .cls-3, .cls-5, .cls-6, .cls-7 {
        stroke-linecap: round;
      }

      .cls-2, .cls-5, .cls-6, .cls-7 {
        fill: none;
      }

      .cls-2, .cls-8 {
        stroke-width: .5px;
      }

      .cls-3 {
        fill: #b4b897;
      }

      .cls-9 {
        font-family: Pretendard-Regular-KSCpc-EUC-H, Pretendard;
        font-size: 15px;
        letter-spacing: -.03em;
      }

      .cls-10 {
        fill: #fff;
      }

      .cls-4 {
        stroke-width: .6px;
      }

      .cls-11 {
        fill: #515151;
        font-family: Pretendard-Light-KSCpc-EUC-H, Pretendard;
        font-size: 13px;
        font-weight: 300;
        letter-spacing: -.03em;
      }

      .cls-5 {
        stroke: #b4b897;
      }

      .cls-7 {
        stroke-dasharray: 4.5 4.5;
      }

      .cls-8 {
        fill: #e3e1d7;
      }
    </style>
  </defs>
  <g id="profile">
    <g>
      <rect class="cls-10" width="309.71" height="80.57" rx="20.75" ry="20.75"/>
      <text class="cls-9" transform="translate(107.42 34.8)"><tspan x="0" y="0">코스 업로드하기</tspan></text>
      <text class="cls-11" transform="translate(107.62 56.05)"><tspan x="0" y="0">나만의 러닝 스팟을 공유해주세요 !</tspan></text>
      <g>
        <polygon class="cls-8" points="30.85 16.88 47.4 23.96 64.13 16.88 80.49 23.96 80.49 63.69 63.75 56.42 47.46 63.69 30.85 56.36 30.85 16.88"/>
        <circle class="cls-4" cx="36.94" cy="30.56" r="1.96"/>
        <g>
          <path class="cls-6" d="M39.06,33.77c.36.62.79,1.33,1.29,2.14"/>
          <path class="cls-7" d="M42.83,39.67c.14.2.28.41.43.62,2.35,3.34,3,3.8,3.76,4.01,2.48.7,5.43-1.61,8.05-3.63,1.15-.88,1.71-1.48,3.26-2.48,1.94-1.25,3.22-2.05,4.64-1.88,1.35.16,2.23,1.12,3.54,2.66.86,1.01,1.84,2.2,2.9,3.57"/>
          <path class="cls-6" d="M70.79,44.32c.48.64.98,1.31,1.49,2.01"/>
        </g>
        <line class="cls-2" x1="64.13" y1="16.96" x2="64.13" y2="29.43"/>
        <line class="cls-2" x1="63.76" y1="47.58" x2="63.76" y2="56.42"/>
        <line class="cls-2" x1="47.48" y1="51.09" x2="47.48" y2="63.69"/>
        <line class="cls-2" x1="47.41" y1="23.97" x2="47.41" y2="32.57"/>
        <path class="cls-1" d="M72.55,40.4c-1.39-1.68-2.44-3.16-3.18-4.26-1.85-2.79-2.04-3.7-2.07-4.43-.07-1.96,1.01-3.35,1.17-3.55,1.42-1.78,3.47-1.98,3.8-2.01.59-.05,2.62-.11,4.16,1.46,1.59,1.62,1.43,3.72,1.38,4.18-.12,1.1-.56,1.84-1.4,3.11-.95,1.45-2.24,3.33-3.86,5.49Z"/>
        <polyline class="cls-5" points="50.14 58.47 53.8 49.39 56.44 56.03"/>
        <path class="cls-3" d="M53.86,56.42c1.04-1.87,2.07-3.74,3.11-5.61.62,1.56,1.23,3.11,1.85,4.67"/>
        <polyline class="cls-3" points="50.2 58.32 53.8 49.39 56.57 56.24"/>
      </g>
    </g>
  </g>
</svg>