<?xml version="1.0" encoding="UTF-8"?>
<svg id="_레이어_2" data-name="레이어 2" xmlns="http://www.w3.org/2000/svg" viewBox="0 0 42.4 42.7">
  <defs>
    <style>
      .cls-1 {
        fill: none;
        stroke: #839573;
        stroke-miterlimit: 10;
        stroke-width: 1.3px;
      }

      .cls-2 {
        fill: #839573;
        font-family: TTHakgyoansimJeomsimsiganB, 'Hakgyoansim Jeomsimsigan';
        font-size: 10px;
      }
    </style>
  </defs>
  <g id="main_main">
    <g>
      <path id="main_main_mypage_icon" class="cls-1" d="M16.6.65c-1.25,3.62-2.5,7.24-3.75,10.86-2.74-1.09-5.47-2.18-8.21-3.27-2.6,6.56-2.81,8.21-2.45,8.4.23.12.87-.44,2.17-1.57.77-.67,1.37-1.26,1.8-1.71,3.48,2.12,6.96,4.24,10.44,6.36,1.45-2.94,2.91-5.88,4.36-8.82,3.05,5.49,6.1,10.98,9.16,16.46,6.62-2.95,7.86-3.99,7.73-4.4-.07-.22-.68-.28-1.9-.4-1.36-.13-2.49-.1-3.27-.05-2.45-7.29-4.9-14.58-7.35-21.87h-8.73Z"/>
      <text class="cls-2" transform="translate(0 40.3)"><tspan x="0" y="0">마이페이지</tspan></text>
    </g>
  </g>
</svg>