<?xml version="1.0" encoding="UTF-8"?>
<svg id="_레이어_2" data-name="레이어 2" xmlns="http://www.w3.org/2000/svg" viewBox="0 0 115.91 76.17">
  <defs>
    <style>
      .cls-1 {
        letter-spacing: -.03em;
      }

      .cls-2 {
        letter-spacing: -.03em;
      }

      .cls-3 {
        fill: #8e7c62;
      }

      .cls-4 {
        fill: #705d3e;
        font-family: Pretendard-Regular-KSCpc-EUC-H, Pretendard;
        font-size: 11px;
      }
    </style>
  </defs>
  <g id="main_search">
    <g>
      <g>
        <path class="cls-3" d="M65.99,32.72c.54-1.78,1.25-4.47,1.69-7.82.62-4.74.17-6.82,1.84-8.89,1.33-1.66,3.74-2.98,6.11-2.58,3.58.6,5.13,4.79,5.54,5.92,2.27,6.14-1.69,11.95-2.13,12.57-1.71,2.42-3.78,3.8-5.08,4.52-1.12-.24-2.5-.63-4-1.31-1.68-.76-3-1.64-3.97-2.4Z"/>
        <path class="cls-3" d="M64.36,36.43c1.23.54,2.64,1.08,4.22,1.55,1.8.54,3.47.9,4.95,1.14-.18,1.21-.5,2.97-1.07,5.06-.91,3.37-1.51,4.07-1.83,4.4-1.06,1.09-3.15,2.25-5.27,1.54-2.11-.7-3.33-2.92-3.33-4.73,0-1.86,1.31-2.41,2.02-5.2.39-1.52.38-2.85.31-3.76Z"/>
        <path class="cls-3" d="M37.54,23.25c-1.12-2.48-2.78-6.23-3.25-11.2-.33-3.48-.63-6.62,1.33-9.3.42-.57,1.69-2.3,3.82-2.67,3.01-.52,5.47,2.04,6.02,2.6,2.09,2.18,2.5,4.74,3.12,9.01.32,2.21.61,5.41.36,9.32-1.54.52-3.71,1.46-5.92,3.21-1.43,1.13-2.5,2.31-3.28,3.3-.6-1.01-1.4-2.46-2.21-4.26Z"/>
        <path class="cls-3" d="M41.15,31.31c.68-1.1,2.15-3.15,4.8-4.62,1.61-.9,3.12-1.28,4.19-1.46,1,1.26,2.18,3.19,2.63,5.74.31,1.78.83,4.74-1.04,6.7-.92.96-2.44,1.7-3.97,1.49-1.83-.25-2.92-1.78-4.41-3.86-1.13-1.58-1.81-3.03-2.2-3.98Z"/>
      </g>
      <text class="cls-4" transform="translate(0 72.93)"><tspan class="cls-2" x="0" y="0">아직 등록된 코스가 없어요 .</tspan><tspan class="cls-1" x="113.13" y="0">.</tspan></text>
    </g>
  </g>
</svg>