<?xml version="1.0" encoding="UTF-8"?>
<svg id="_레이어_2" data-name="레이어 2" xmlns="http://www.w3.org/2000/svg" viewBox="0 0 166.52 28.96">
  <defs>
    <style>
      .cls-1 {
        fill: none;
        stroke: #705d3e;
        stroke-miterlimit: 10;
      }

      .cls-2 {
        fill: #705d3e;
        font-family: TTHakgyoansimJeomsimsiganB, 'Hakgyoansim Jeomsimsigan';
        font-size: 18.91px;
      }
    </style>
  </defs>
  <g id="main_main">
    <g>
      <path class="cls-1" d="M157.2,16.95c.3-.99.69-2.48.94-4.34.34-2.63.09-3.79,1.02-4.94.74-.92,2.08-1.66,3.39-1.43,1.99.33,2.85,2.66,3.08,3.29,1.26,3.41-.94,6.64-1.18,6.98-.95,1.34-2.1,2.11-2.82,2.51-.62-.13-1.39-.35-2.22-.73-.93-.42-1.67-.91-2.21-1.33Z"/>
      <path class="cls-1" d="M156.3,20.73c.69.3,1.47.6,2.34.86,1,.3,1.92.5,2.75.63-.1.67-.28,1.65-.59,2.81-.51,1.87-.84,2.26-1.01,2.44-.59.6-1.75,1.25-2.93.86-1.17-.39-1.85-1.62-1.85-2.63,0-1.03.73-1.34,1.12-2.89.21-.84.21-1.58.17-2.09Z"/>
      <path class="cls-1" d="M141.4,13.41c-.62-1.38-1.54-3.46-1.81-6.22-.19-1.93-.35-3.68.74-5.17.23-.32.94-1.28,2.12-1.48,1.67-.29,3.04,1.13,3.34,1.45,1.16,1.21,1.39,2.63,1.73,5,.18,1.23.34,3.01.2,5.18-.85.29-2.06.81-3.29,1.78-.8.63-1.39,1.28-1.82,1.83-.33-.56-.78-1.37-1.23-2.37Z"/>
      <path class="cls-1" d="M143.41,17.89c.37-.61,1.19-1.75,2.67-2.57.9-.5,1.73-.71,2.33-.81.56.7,1.21,1.77,1.46,3.18.17.99.46,2.63-.58,3.72-.51.53-1.36.94-2.2.83-1.01-.14-1.62-.99-2.45-2.14-.63-.88-1.01-1.68-1.22-2.21Z"/>
      <path class="cls-1" d="M139.86,9.3c.99-3.51,2.11-7.69,1.77-7.81-.15-.05-.54.69-.75,1.2-1.17,2.8-.15,6.32.53,6.32.92,0,1.55-6.51,1.74-6.48.22.03-1.25,9.3-.77,9.4.47.09,2.65-8.7,2.77-8.67.13.03-2.4,9.92-1.87,10.08.38.11,2.14-4.73,2.44-4.63.25.09-.97,3.67-.56,3.84.35.15,1.68-2.19,2.67-4"/>
      <path class="cls-1" d="M143.79,18.49c.25.01,2.4.12,2.79-.84.09-.23.09-.54.01-.56-.25-.08-1.44,2.86-1.27,2.95.23.12,2.83-4.75,3.1-4.62.29.15-2.42,5.93-2.13,6.07.24.12,2.37-3.86,2.72-3.69.29.14-.87,2.89-.54,3.05.2.1.84-.77,1.58-1.91"/>
      <path class="cls-1" d="M158.2,12.08c1.96-2.96,3.3-4.78,3.56-4.63.47.26-2.59,7.05-3.01,6.9-.13-.05-.11-.78.2-1.44.92-1.95,3.55-1.51,4.43-3.42.29-.63.35-1.42.14-1.51-.73-.34-5.41,7.61-4.85,8.02.47.35,4.69-4.76,5.05-4.46.3.25-2.54,3.96-2.04,4.4.4.36,2.61-1.69,2.86-1.45.17.17-.65,1.35-3.23,4.34"/>
      <path class="cls-1" d="M156.21,22.45c1.07-.6,1.87-.98,1.99-.83.22.3-2.23,2.45-2.16,2.53.08.08,2.71-2.44,3.01-2.18.39.34-3.15,5.32-3.42,5.16-.11-.06.26-.99.81-1.76,1.43-1.97,4.02-2.73,4.25-2.37.31.49-3.7,3.3-3.39,3.76.18.27,2.38-1.23,2.62-.92.17.22-.74,1.26-1.98,2.51"/>
      <text class="cls-2" transform="translate(0 21.74)"><tspan x="0" y="0">내 주변 추천 코스</tspan></text>
    </g>
  </g>
</svg>