<?xml version="1.0" encoding="UTF-8"?>
<svg id="_레이어_2" data-name="레이어 2" xmlns="http://www.w3.org/2000/svg" viewBox="0 0 393 183.95">
  <defs>
    <style>
      .cls-1 {
        fill: #92a382;
      }

      .cls-2 {
        fill: #f9dd8b;
      }

      .cls-3 {
        fill: #705d3e;
      }
    </style>
  </defs>
  <g id="main_main">
    <g>
      <path class="cls-1" d="M0,183.95c35.41-37.01,67.75-48.95,91.04-52.91,77.58-13.16,128.75,49.77,205.1,33.1,40.99-8.95,72.93-32,72.93-32,10.54-7.61,18.52-15.06,23.93-20.57V0H0v183.95Z"/>
      <ellipse class="cls-3" cx="312.92" cy="162.48" rx="6.47" ry="1.73"/>
      <path class="cls-2" d="M322.09,145.92c-.55-4.23-3.68-6.43-4.7-7.05-1.91-1.18-3.74-1.31-4.7-1.3-.96-.01-2.78.12-4.7,1.3-1.02.63-4.15,2.83-4.7,7.05-.36,2.78.57,5,1.02,5.9,2.79,3.5,5.59,7.01,8.38,10.51,2.79-3.5,5.59-7.01,8.38-10.51.45-.91,1.38-3.13,1.02-5.9Z"/>
      <circle class="cls-1" cx="312.92" cy="147.61" r="4.26"/>
    </g>
  </g>
</svg>