<?xml version="1.0" encoding="UTF-8"?>
<svg id="_레이어_2" data-name="레이어 2" xmlns="http://www.w3.org/2000/svg" viewBox="0 0 20.17 13.35">
  <defs>
    <style>
      .cls-1 {
        fill: none;
        stroke: #839573;
        stroke-linecap: round;
        stroke-miterlimit: 10;
        stroke-width: 2px;
      }
    </style>
  </defs>
  <g id="course_detail">
    <path id="distance" class="cls-1" d="M18.5,1c-3.07.04-6.14.08-9.22.12-.14.01-.35.04-.58.12-.9.32-1.32,1.14-1.44,1.39-.12.24-.51,1.02-.29,1.97.34,1.45,1.83,1.99,1.95,2.03h.63c.19,0,6.43-.02,6.81,0,.1,0,.24.02.4.05.69.14,1.13.53,1.33.71.22.2.97.87,1.07,1.95.11,1.15-.55,2.35-1.58,2.81-.42.19-.81.21-1.05.2H1"/>
  </g>
</svg>