<?xml version="1.0" encoding="UTF-8"?>
<svg id="_레이어_2" data-name="레이어 2" xmlns="http://www.w3.org/2000/svg" viewBox="0 0 309.71 80.57">
  <defs>
    <style>
      .cls-1 {
        fill: #eaafad;
      }

      .cls-1, .cls-2, .cls-3 {
        stroke: #000;
        stroke-miterlimit: 10;
        stroke-width: .7px;
      }

      .cls-4 {
        font-family: Pretendard-Regular-KSCpc-EUC-H, Pretendard;
        font-size: 15px;
        letter-spacing: -.03em;
      }

      .cls-5, .cls-2 {
        fill: #fff;
      }

      .cls-6 {
        fill: #515151;
        font-family: Pretendard-Light-KSCpc-EUC-H, Pretendard;
        font-size: 13px;
        font-weight: 300;
        letter-spacing: -.03em;
      }

      .cls-3 {
        fill: #e3e1d7;
      }
    </style>
  </defs>
  <g id="profile">
    <g>
      <rect class="cls-5" width="309.71" height="80.57" rx="20.75" ry="20.75"/>
      <text class="cls-4" transform="translate(107.55 35.7)"><tspan x="0" y="0">저장한 코스</tspan></text>
      <text class="cls-6" transform="translate(108.13 56.05)"><tspan x="0" y="0">저장된 코스를 따라 달려보세요 !</tspan></text>
      <polygon class="cls-3" points="38.29 38.8 46.23 58.66 36.52 55.57 29.02 34.17 38.29 38.8"/>
      <polygon class="cls-3" points="67.63 38.58 74.91 32.19 83.29 48.07 75.46 56.46 67.63 38.58"/>
      <polygon class="cls-3" points="38.29 38.8 46.23 58.66 75.46 56.46 67.63 38.58 38.29 38.8"/>
      <path class="cls-1" d="M54.94,46.91c-3.18-5.69-5.26-10.62-6.62-14.29-1.12-3.01-1.7-5.02-.99-7.28.79-2.53,3.28-5.69,6.97-5.74,3.26-.04,5.85,2.36,6.82,4.75.96,2.35.28,4.52-.91,8.04-1.39,4.11-3.13,9-5.27,14.52Z"/>
      <circle class="cls-2" cx="54.06" cy="27.86" r="2.54"/>
    </g>
  </g>
</svg>